# xmcd CD database file
#
# Track frame offsets:
#	150
#	19052
#	46185
#	65042
#	83991
#
# Disc length: 1481 seconds
#
# Revision: 0
# Processed by: cddbd v1.5.1PL2 Copyright (c) Steve Scherf et al.
# Submitted via: CDex 1.60beta1
#
DISCID=3a05c705
DTITLE=antistar - あやかしびと オープニングソング 「虚空のシズク」
DYEAR=2006
DGENRE=Game
TTITLE0=虚空のシズク
TTITLE1=in the break of dawn
TTITLE2=sola-no-sizuku
TTITLE3=虚空のシズク (カラオケ ver.)
TTITLE4=in the break of dawn (カラオケ ver.)
EXTD=YEAR: 2006
EXTT0=
EXTT1=
EXTT2=
EXTT3=
EXTT4=
PLAYORDER=
